# OBJ written from /Users/albertolascala/Building-Generator/models/roof_corner.obj
# Units	meters

o Mesh
v -0.303875 0 -0.275
v 0.303875 0 -0.275
v 0.303875 0 0.275
v -0.303875 0 0.275
v -0.303875 0.5 -0.275
v 0.303875 0.5 -0.275
v 0.303875 0.5 0.275
v -0.303875 0.5 0.275
v -0.36 0 -0.36
v 0.36 0 -0.36
v 0.36 0 0.36
v -0.36 0 0.36
v -0.36 0.5 -0.36
v 0.36 0.5 -0.36
v 0.36 0.5 0.36
v -0.36 0.5 0.36
vn 0 0 1
vn 1 0 0
vn 0 0 -1
vn 0 1 0
vn 0 -1 0
vn -1 0 0
vt 0.5 0.666667
vt 0.25 0.666667
vt 0.5 0.333333
vt 0.25 0.333333
vt 0.75 0.666667
vt 0.75 0.333333
vt 1 0.666667
vt 1 0.333333
vt 0.25 1
vt 0.5 1
vt 0.25 0
vt 0.5 0
vt 0 0.666667
vt 0 0.333333
mtllib roof_corner.mtl
usemtl Default
g Default
f 15/1/1 16/2/1 11/3/1
f 12/4/1 11/3/1 16/2/1
f 14/5/2 15/1/2 10/6/2
f 11/3/2 10/6/2 15/1/2
f 13/7/3 14/5/3 9/8/3
f 10/6/3 9/8/3 14/5/3
f 13/9/4 16/2/4 14/10/4
f 15/1/4 14/10/4 16/2/4
f 9/11/5 10/12/5 12/4/5
f 11/3/5 12/4/5 10/12/5
f 16/2/6 13/13/6 12/4/6
f 9/14/6 12/4/6 13/13/6

o Mesh (2)
mtllib roof_corner.mtl
