# This file uses centimeters as units for non-parametric coordinates.

g default
v -0.255050 1.000000 0.255050
v -0.255050 0.000000 0.255050
v 0.257050 0.000000 0.255050
v 0.257050 1.000000 0.255050
v -0.255050 1.000000 -0.257050
v -0.255050 0.000000 -0.257050
vt 1.000000 1.000000
vt 1.000000 0.000000
vt 0.287348 0.042174
vt 0.000000 0.000000
vt 0.712652 0.042174
vt 1.000000 0.000000
vt 0.000000 0.000000
vt 0.000000 1.000000
vn 1.000000 0.000000 0.000000
vn 1.000000 0.000000 0.000000
vn 1.000000 0.000000 0.000000
vn 1.000000 0.000000 0.000000
vn 0.000000 0.000000 -1.000000
vn 0.000000 0.000000 -1.000000
vn 0.000000 0.000000 -1.000000
vn 0.000000 0.000000 -1.000000
s 1
g sharpCorner:oriented_sharp_corner
f 5/4/1 1/3/2 6/6/3
f 6/6/3 1/3/2 2/5/4
s 2
f 2/8/5 1/1/6 3/7/7
f 3/7/7 1/1/6 4/2/8
