# OBJ written from /Users/albertolascala/Building-Generator/models/roof_corner_exception.obj
# Units	meters

o Mesh
v -0.303875 0 -0.275
v 0.303875 0 -0.275
v 0.303875 0 0.275
v -0.303875 0 0.275
v -0.303875 0.5 -0.275
v 0.303875 0.5 -0.275
v 0.303875 0.5 0.275
v -0.303875 0.5 0.275
v -0.36 0 -0.36
v 0.36 0 -0.36
v 0.36 0 0.36
v -0.36 0 0.36
v -0.36 0.5 -0.36
v 0.36 0.5 -0.36
v 0.36 0.5 0.36
v -0.36 0.5 0.36
mtllib roof_corner_exception.mtl

o Mesh (2)
mtllib roof_corner_exception.mtl

o Mesh (3)
v 0.245 0 0.755
v -0.755 0 0.755
v -0.755 0 -0.245
v 0.245 0.5 0.755
v -0.755 0.5 0.755
v -0.755 0.5 -0.245
v 0.245 0 0.15496
v -0.15496 0 -0.245
v 0.245 0.5 0.15496
v -0.15496 0.5 -0.245
v 0.245 0 0.755
v -0.755 0 0.755
v -0.755 0 -0.245
v 0.245 0.5 0.755
v -0.755 0.5 0.755
v -0.755 0.5 -0.245
v 0.245 0 0.15496
v -0.15496 0 -0.245
v 0.245 0.5 0.15496
v -0.15496 0.5 -0.245
vn 0 1 0
vn 0 0 1
vn 0 0 -1
vn 0 -1 0
vn -1 0 0
vn 1 0 0
vn 0.707107 0 -0.707107
vt 0.5 0.666667
vt 0.5 1
vt 0.34999 0.666667
vt 0.25 0.799987
vt 0.25 1
vt 0.75 0.333333
vt 1 0.333333
vt 0.75 0.666667
vt 1 0.666667
vt 0.34999 0.333333
vt 0.5 0.333333
vt 0.25 0
vt 0.5 0
vt 0.25 0.200013
vt 0 0.333333
vt 0.15001 0.333333
vt 0 0.666667
vt 0.15001 0.666667
mtllib roof_corner_exception.mtl
usemtl Default
g roof_corner_exception1:Default
f 22/1/1 21/2/1 26/3/1
f 26/3/1 21/2/1 25/4/1
f 21/2/1 20/5/1 25/4/1
f 18/6/2 17/7/2 21/8/2
f 21/8/2 17/7/2 20/9/2
f 24/10/3 19/11/3 26/3/3
f 26/3/3 19/11/3 22/1/3
f 17/12/4 18/13/4 23/14/4
f 23/14/4 18/13/4 24/10/4
f 18/13/4 19/11/4 24/10/4
f 19/11/5 18/6/5 22/1/5
f 22/1/5 18/6/5 21/8/5
f 17/15/6 23/16/6 20/17/6
f 20/17/6 23/16/6 25/18/6
f 26/3/7 25/18/7 24/10/7
f 24/10/7 25/18/7 23/16/7
f 32/1/1 31/2/1 36/3/1
f 36/3/1 31/2/1 35/4/1
f 31/2/1 30/5/1 35/4/1
f 28/6/2 27/7/2 31/8/2
f 31/8/2 27/7/2 30/9/2
f 34/10/3 29/11/3 36/3/3
f 36/3/3 29/11/3 32/1/3
f 27/12/4 28/13/4 33/14/4
f 33/14/4 28/13/4 34/10/4
f 28/13/4 29/11/4 34/10/4
f 29/11/5 28/6/5 32/1/5
f 32/1/5 28/6/5 31/8/5
f 27/15/6 33/16/6 30/17/6
f 30/17/6 33/16/6 35/18/6
f 36/3/7 35/18/7 34/10/7
f 34/10/7 35/18/7 33/16/7
