# This file uses centimeters as units for non-parametric coordinates.

mtllib Plane.mtl
g default
v 0.001091 0.000000 0.498909
v 0.001091 1.000000 0.498909
v 0.001091 0.000000 -0.501091
v 0.001091 1.000000 -0.501091
vt 0.000000 0.000000
vt 1.000000 0.000000
vt 0.000000 1.000000
vt 1.000000 1.000000
vn -1.000000 0.000000 0.000000
vn -1.000000 0.000000 0.000000
vn -1.000000 0.000000 0.000000
vn -1.000000 0.000000 0.000000
s 1
g pPlane16
usemtl initialShadingGroup
f 4/4/1 3/3/2 2/2/3
f 2/2/3 3/3/2 1/1/4
